# xmcd
#
# Track frame offsets:
#	150
#	13475
#	30135
#	43905
#	59527
#	69975
#	82900
#	102150
#	118622
#	128432
#	143520
#	158167
#	174997
#
# Disc length: 2527 seconds
#
# Revision: 1
# Processed by: cddbd v1.4b41PL1 Copyright (c) Steve Scherf et al.
# Submitted via: audiograbber 1.80
#
DISCID=9d09dd0d
DTITLE=Bap Kennedy - Lonely Street
DYEAR=1900
DGENRE=
TTITLE0=Good Times On Franklin Road
TTITLE1=Stuck With Myself
TTITLE2=Moonlight Kiss
TTITLE3=Be Careful What You Wish For
TTITLE4=Almost Always Wrong
TTITLE5=Elvis, Hank and Me
TTITLE6=Lonely Street
TTITLE7=Gladys and Vernon
TTITLE8=Drunk On The Blood Of Christ
TTITLE9=Baby It's Alright
TTITLE10=Hank's Last Waltz
TTITLE11=Saturday Night and Sunday Morning
TTITLE12=Lonesome Lullaby
EXTD="All the songs on this album have been inspired by and are dedicated to Hank
EXTD=Williams and Elvis Presley." -- Bap Kennedy
EXTT0=
EXTT1=
EXTT2=
EXTT3=
EXTT4=
EXTT5=
EXTT6=
EXTT7=
EXTT8=
EXTT9=
EXTT10=
EXTT11=
EXTT12=
PLAYORDER=
